<svg width="40" height="40" viewBox="0 0 40 40" fill="none" xmlns="http://www.w3.org/2000/svg">
<g clip-path="url(#clip0_113_492)">
<path d="M21.1106 20.9445C20.9025 21.1514 20.6208 21.2676 20.3273 21.2676C20.0338 21.2676 19.7521 21.1514 19.544 20.9445L16.2106 17.6111C15.7349 18.3185 15.4726 19.1477 15.4551 20C15.4551 20.8988 15.7216 21.7774 16.221 22.5248C16.7203 23.2721 17.43 23.8546 18.2604 24.1985C19.0908 24.5425 20.0046 24.6325 20.8861 24.4571C21.7676 24.2818 22.5774 23.849 23.2129 23.2134C23.8485 22.5779 24.2813 21.7681 24.4566 20.8866C24.632 20.0051 24.542 19.0913 24.198 18.2609C23.8541 17.4305 23.2716 16.7208 22.5243 16.2214C21.7769 15.7221 20.8983 15.4556 19.9995 15.4556C19.2179 15.4603 18.4514 15.6711 17.7773 16.0667L21.1106 19.4C21.3109 19.6072 21.4228 19.8841 21.4228 20.1722C21.4228 20.4604 21.3109 20.7373 21.1106 20.9445Z" fill="#A31414"/>
<path d="M20.0005 2.22218C18.4041 2.22769 16.8158 2.44819 15.2783 2.87773L17.0561 7.19995C19.855 6.54587 22.7909 6.82246 25.4184 7.98776C28.0459 9.15307 30.2217 11.1435 31.6157 13.6572C33.0098 16.1708 33.546 19.0706 33.143 21.9165C32.7401 24.7625 31.4199 27.3994 29.3829 29.4272C27.3458 31.4551 24.703 32.7633 21.8552 33.1534C19.0075 33.5434 16.1102 32.9941 13.6029 31.5887C11.0956 30.1833 9.11498 27.9985 7.96157 25.3658C6.80816 22.733 6.54486 19.7959 7.21161 17L2.90049 15.2C1.89499 18.7857 2.04095 22.5968 3.31777 26.0951C4.59459 29.5935 6.9378 32.6026 10.0167 34.6977C13.0956 36.7927 16.7546 37.868 20.4775 37.7718C24.2003 37.6755 27.799 36.4126 30.7655 34.1612C33.732 31.9098 35.9166 28.7837 37.0109 25.224C38.1053 21.6643 38.0541 17.8509 36.8646 14.3218C35.6752 10.7928 33.4075 7.7264 30.3817 5.55542C27.3558 3.38444 23.7246 2.21851 20.0005 2.22218Z" fill="#A31414"/>
<path d="M8.88953 17.7111C8.40324 20.0878 8.69471 22.5578 9.72084 24.756C10.747 26.9542 12.4533 28.7638 14.5874 29.9173C16.7216 31.0707 19.1702 31.5067 21.5714 31.1608C23.9725 30.8149 26.1985 29.7055 27.9203 27.9966C29.6422 26.2877 30.7683 24.0701 31.1323 21.6716C31.4962 19.2732 31.0787 16.8213 29.9413 14.6785C28.804 12.5357 27.0073 10.8159 24.8169 9.77322C22.6265 8.73058 20.1587 8.42052 17.7784 8.8889L19.6562 13.4556H20.0006C21.2923 13.4556 22.555 13.8385 23.6292 14.5559C24.7034 15.2733 25.5408 16.293 26.0356 17.4861C26.5304 18.6793 26.6604 19.9924 26.4092 21.2594C26.158 22.5264 25.5369 23.6906 24.6243 24.6047C23.7117 25.5189 22.5486 26.142 21.282 26.3953C20.0154 26.6487 18.7021 26.5209 17.5081 26.0281C16.3141 25.5353 15.293 24.6996 14.5738 23.6267C13.8545 22.5538 13.4695 21.2917 13.4673 20V19.6111L8.88953 17.7111Z" fill="#A31414"/>
<path d="M9.11069 14.8222C9.21326 14.9269 9.35304 14.9868 9.49958 14.9889H13.5551L16.1662 17.6C16.5683 16.9636 17.1219 16.4368 17.7774 16.0666L15.0329 13.3333V9.45552C15.0308 9.30898 14.9709 9.1692 14.8662 9.06663L8.65513 2.85552C8.57748 2.77938 8.47919 2.72771 8.37245 2.70691C8.26571 2.68611 8.15522 2.6971 8.05466 2.7385C7.9541 2.77991 7.86791 2.84991 7.80677 2.93984C7.74562 3.02977 7.71221 3.13567 7.71069 3.24441V7.68885H3.33291C3.22417 7.69038 3.11827 7.72379 3.02834 7.78493C2.93841 7.84608 2.86841 7.93227 2.827 8.03282C2.7856 8.13338 2.77461 8.24388 2.79541 8.35062C2.81622 8.45736 2.86789 8.55565 2.94402 8.6333L9.11069 14.8222Z" fill="#A31414"/>
</g>
<defs>
<clipPath id="clip0_113_492">
<rect width="40" height="40" fill="white"/>
</clipPath>
</defs>
</svg>
