<svg width="30" height="30" viewBox="0 0 30 30" fill="none" xmlns="http://www.w3.org/2000/svg">
<path d="M3.33333 30C2.41667 30 1.63222 29.6739 0.98 29.0217C0.327778 28.3694 0.00111111 27.5844 0 26.6667V1.66667C0 1.19445 0.16 0.798895 0.48 0.480006C0.8 0.161117 1.19556 0.00111686 1.66667 5.74712e-06C2.13778 -0.00110536 2.53389 0.158895 2.855 0.480006C3.17611 0.801117 3.33556 1.19667 3.33333 1.66667V26.6667H28.3333C28.8056 26.6667 29.2017 26.8267 29.5217 27.1467C29.8417 27.4667 30.0011 27.8622 30 28.3333C29.9989 28.8045 29.8389 29.2006 29.52 29.5217C29.2011 29.8428 28.8056 30.0022 28.3333 30H3.33333ZM6.66667 25C6.19444 25 5.79889 24.84 5.48 24.52C5.16111 24.2 5.00111 23.8045 5 23.3333V11.6667C5 11.1944 5.16 10.7989 5.48 10.48C5.8 10.1611 6.19556 10.0011 6.66667 10H10C10.4722 10 10.8683 10.16 11.1883 10.48C11.5083 10.8 11.6678 11.1956 11.6667 11.6667V23.3333C11.6667 23.8056 11.5067 24.2017 11.1867 24.5217C10.8667 24.8417 10.4711 25.0011 10 25H6.66667ZM15 25C14.5278 25 14.1322 24.84 13.8133 24.52C13.4944 24.2 13.3344 23.8045 13.3333 23.3333V3.33334C13.3333 2.86112 13.4933 2.46556 13.8133 2.14667C14.1333 1.82778 14.5289 1.66778 15 1.66667H18.3333C18.8056 1.66667 19.2017 1.82667 19.5217 2.14667C19.8417 2.46667 20.0011 2.86223 20 3.33334V23.3333C20 23.8056 19.84 24.2017 19.52 24.5217C19.2 24.8417 18.8044 25.0011 18.3333 25H15ZM23.3333 25C22.8611 25 22.4656 24.84 22.1467 24.52C21.8278 24.2 21.6678 23.8045 21.6667 23.3333V18.3333C21.6667 17.8611 21.8267 17.4656 22.1467 17.1467C22.4667 16.8278 22.8622 16.6678 23.3333 16.6667H26.6667C27.1389 16.6667 27.535 16.8267 27.855 17.1467C28.175 17.4667 28.3344 17.8622 28.3333 18.3333V23.3333C28.3333 23.8056 28.1733 24.2017 27.8533 24.5217C27.5333 24.8417 27.1378 25.0011 26.6667 25H23.3333Z" fill="#A31414"/>
</svg>
