<svg width="48" height="56" viewBox="0 0 48 56" fill="none" xmlns="http://www.w3.org/2000/svg">
<g filter="url(#filter0_dd_113_586)">
<rect x="8" width="32" height="32" rx="8" fill="#A31414"/>
<path d="M24 26C23.45 26 22.9793 25.8043 22.588 25.413C22.1967 25.0217 22.0007 24.5507 22 24H26C26 24.55 25.8043 25.021 25.413 25.413C25.0217 25.805 24.5507 26.0007 24 26ZM20 23V21H28V23H20ZM20.25 20C19.1 19.3167 18.1873 18.4 17.512 17.25C16.8367 16.1 16.4993 14.85 16.5 13.5C16.5 11.4167 17.2293 9.646 18.688 8.188C20.1467 6.73 21.9173 6.00067 24 6C26.0827 5.99933 27.8537 6.72867 29.313 8.188C30.7723 9.64733 31.5013 11.418 31.5 13.5C31.5 14.85 31.1627 16.1 30.488 17.25C29.8133 18.4 28.9007 19.3167 27.75 20H20.25ZM20.85 18H27.15C27.9 17.4667 28.4793 16.8083 28.888 16.025C29.2967 15.2417 29.5007 14.4 29.5 13.5C29.5 11.9667 28.9667 10.6667 27.9 9.6C26.8333 8.53333 25.5333 8 24 8C22.4667 8 21.1667 8.53333 20.1 9.6C19.0333 10.6667 18.5 11.9667 18.5 13.5C18.5 14.4 18.7043 15.2417 19.113 16.025C19.5217 16.8083 20.1007 17.4667 20.85 18Z" fill="#FFDFDF"/>
</g>
<defs>
<filter id="filter0_dd_113_586" x="0" y="0" width="48" height="56" filterUnits="userSpaceOnUse" color-interpolation-filters="sRGB">
<feFlood flood-opacity="0" result="BackgroundImageFix"/>
<feColorMatrix in="SourceAlpha" type="matrix" values="0 0 0 0 0 0 0 0 0 0 0 0 0 0 0 0 0 0 127 0" result="hardAlpha"/>
<feMorphology radius="4" operator="erode" in="SourceAlpha" result="effect1_dropShadow_113_586"/>
<feOffset dy="4"/>
<feGaussianBlur stdDeviation="2"/>
<feComposite in2="hardAlpha" operator="out"/>
<feColorMatrix type="matrix" values="0 0 0 0 0.0470588 0 0 0 0 0.0470588 0 0 0 0 0.0509804 0 0 0 0.05 0"/>
<feBlend mode="normal" in2="BackgroundImageFix" result="effect1_dropShadow_113_586"/>
<feColorMatrix in="SourceAlpha" type="matrix" values="0 0 0 0 0 0 0 0 0 0 0 0 0 0 0 0 0 0 127 0" result="hardAlpha"/>
<feMorphology radius="8" operator="erode" in="SourceAlpha" result="effect2_dropShadow_113_586"/>
<feOffset dy="16"/>
<feGaussianBlur stdDeviation="8"/>
<feComposite in2="hardAlpha" operator="out"/>
<feColorMatrix type="matrix" values="0 0 0 0 0.0470588 0 0 0 0 0.0470588 0 0 0 0 0.0509804 0 0 0 0.1 0"/>
<feBlend mode="normal" in2="effect1_dropShadow_113_586" result="effect2_dropShadow_113_586"/>
<feBlend mode="normal" in="SourceGraphic" in2="effect2_dropShadow_113_586" result="shape"/>
</filter>
</defs>
</svg>
