<svg width="48" height="56" viewBox="0 0 48 56" fill="none" xmlns="http://www.w3.org/2000/svg">
<g filter="url(#filter0_dd_113_540)">
<rect x="8" width="32" height="32" rx="8" fill="#A31414"/>
<path d="M18.9922 18.502C18.727 18.502 18.4726 18.6074 18.2851 18.7949C18.0976 18.9824 17.9922 19.2368 17.9922 19.502V21.284C16.7031 19.8265 15.9918 17.9478 15.9922 16.002C15.991 15.7079 16.0084 15.414 16.0442 15.122C16.0633 14.9901 16.0558 14.8557 16.0222 14.7267C15.9886 14.5977 15.9296 14.4768 15.8485 14.371C15.7675 14.2651 15.6661 14.1766 15.5504 14.1105C15.4347 14.0444 15.3069 14.0021 15.1746 13.9861C15.0422 13.9701 14.908 13.9807 14.7799 14.0173C14.6517 14.0539 14.5322 14.1158 14.4283 14.1992C14.3244 14.2827 14.2382 14.3861 14.1748 14.5034C14.1114 14.6206 14.0721 14.7494 14.0592 14.882C14.0136 15.2536 13.9912 15.6276 13.9922 16.002C13.9932 18.3883 14.8509 20.6948 16.4092 22.502H14.9922C14.727 22.502 14.4726 22.6074 14.2851 22.7949C14.0976 22.9824 13.9922 23.2368 13.9922 23.502C13.9922 23.7672 14.0976 24.0216 14.2851 24.2091C14.4726 24.3967 14.727 24.502 14.9922 24.502H18.9922C19.1486 24.5001 19.3023 24.4609 19.4405 24.3874C19.5786 24.314 19.6972 24.2086 19.7862 24.08L19.8232 24.037C19.8302 24.027 19.8302 24.015 19.8362 24.005C19.8834 23.9244 19.9191 23.8375 19.9422 23.747C19.957 23.6959 19.9677 23.6438 19.9742 23.591C19.9772 23.561 19.9922 23.534 19.9922 23.502V19.502C19.9922 19.2368 19.8869 18.9824 19.6993 18.7949C19.5118 18.6074 19.2574 18.502 18.9922 18.502ZM20.4922 10.002H18.7092C20.167 8.7127 22.0461 8.00131 23.9922 8.00201C24.2864 8.00117 24.5803 8.01887 24.8722 8.05501C25.1357 8.08683 25.4011 8.01268 25.6099 7.84887C25.8187 7.68506 25.9539 7.445 25.9857 7.18151C26.0175 6.91802 25.9434 6.65267 25.7796 6.44385C25.6158 6.23503 25.3757 6.09983 25.1122 6.06801C24.7406 6.02274 24.3666 6.00069 23.9922 6.00201C21.606 6.00302 19.2994 6.86071 17.4922 8.41901V7.00201C17.4922 6.73679 17.3869 6.48244 17.1993 6.2949C17.0118 6.10737 16.7574 6.00201 16.4922 6.00201C16.227 6.00201 15.9726 6.10737 15.7851 6.2949C15.5976 6.48244 15.4922 6.73679 15.4922 7.00201V11.002C15.4987 11.0681 15.5118 11.1335 15.5312 11.197C15.5561 11.3202 15.6039 11.4376 15.6722 11.543L15.6842 11.56C15.7506 11.6556 15.8332 11.7388 15.9282 11.806C15.9392 11.814 15.9452 11.826 15.9562 11.834C15.9702 11.844 15.9862 11.847 16.0012 11.855C16.0583 11.8889 16.1186 11.9171 16.1812 11.939C16.2655 11.9682 16.3532 11.9861 16.4422 11.992C16.4602 11.992 16.4742 12.002 16.4922 12.002H20.4922C20.7574 12.002 21.0118 11.8967 21.1993 11.7091C21.3869 11.5216 21.4922 11.2672 21.4922 11.002C21.4922 10.7368 21.3869 10.4824 21.1993 10.2949C21.0118 10.1074 20.7574 10.002 20.4922 10.002ZM32.4522 20.806C32.4273 20.6832 32.3794 20.5662 32.3112 20.461L32.3002 20.444C32.2335 20.3484 32.1506 20.2651 32.0552 20.198C32.0442 20.19 32.0392 20.178 32.0272 20.17C32.0172 20.163 32.0042 20.163 31.9932 20.156C31.8659 20.0862 31.727 20.0402 31.5832 20.02C31.5512 20.017 31.5242 20.002 31.4922 20.002H27.4922C27.227 20.002 26.9726 20.1074 26.7851 20.2949C26.5976 20.4824 26.4922 20.7368 26.4922 21.002C26.4922 21.2672 26.5976 21.5216 26.7851 21.7091C26.9726 21.8967 27.227 22.002 27.4922 22.002H29.2742C27.8167 23.2911 25.938 24.0025 23.9922 24.002C23.698 24.0025 23.4041 23.9845 23.1122 23.948C22.8487 23.9162 22.5834 23.9903 22.3746 24.1541C22.1657 24.318 22.0305 24.558 21.9987 24.8215C21.9669 25.085 22.041 25.3503 22.2049 25.5592C22.3687 25.768 22.6087 25.9032 22.8722 25.935C23.2438 25.9806 23.6179 26.003 23.9922 26.002C26.3785 26.001 28.685 25.1433 30.4922 23.585V25.002C30.4922 25.2672 30.5976 25.5216 30.7851 25.7091C30.9726 25.8967 31.227 26.002 31.4922 26.002C31.7574 26.002 32.0118 25.8967 32.1993 25.7091C32.3869 25.5216 32.4922 25.2672 32.4922 25.002V21.002C32.4854 20.9358 32.472 20.8695 32.4522 20.806ZM32.9922 9.50201C33.2574 9.50201 33.5118 9.39665 33.6993 9.20912C33.8869 9.02158 33.9922 8.76723 33.9922 8.50201C33.9922 8.23679 33.8869 7.98244 33.6993 7.7949C33.5118 7.60737 33.2574 7.50201 32.9922 7.50201H28.9922C28.9271 7.50869 28.8628 7.52176 28.8002 7.54101L28.7932 7.54201C28.6722 7.56726 28.5569 7.61473 28.4532 7.68201L28.4332 7.69501C28.338 7.7615 28.2551 7.84407 28.1882 7.93901C28.1802 7.94901 28.1682 7.95501 28.1602 7.96601C28.1532 7.97601 28.1532 7.98901 28.1462 8.00001C28.0761 8.12824 28.03 8.26821 28.0102 8.41301C28.0072 8.44301 27.9922 8.47001 27.9922 8.50201V12.502C27.9922 12.7672 28.0976 13.0216 28.2851 13.2091C28.4726 13.3967 28.727 13.502 28.9922 13.502C29.2574 13.502 29.5118 13.3967 29.6993 13.2091C29.8869 13.0216 29.9922 12.7672 29.9922 12.502V10.719C31.2807 12.1773 31.992 14.0561 31.9922 16.002C31.9931 16.2962 31.9754 16.5901 31.9392 16.882C31.9073 17.1452 31.9813 17.4103 32.1448 17.6191C32.3083 17.8278 32.548 17.963 32.8112 17.995C32.8517 17.9998 32.8924 18.0022 32.9332 18.002C33.1773 18.0016 33.4129 17.9119 33.5954 17.7498C33.778 17.5877 33.8949 17.3644 33.9242 17.122C33.9702 16.7505 33.9929 16.3764 33.9922 16.002C33.9912 13.6158 33.1335 11.3092 31.5752 9.50201H32.9922Z" fill="#FFDFDF"/>
</g>
<defs>
<filter id="filter0_dd_113_540" x="0" y="0" width="48" height="56" filterUnits="userSpaceOnUse" color-interpolation-filters="sRGB">
<feFlood flood-opacity="0" result="BackgroundImageFix"/>
<feColorMatrix in="SourceAlpha" type="matrix" values="0 0 0 0 0 0 0 0 0 0 0 0 0 0 0 0 0 0 127 0" result="hardAlpha"/>
<feMorphology radius="4" operator="erode" in="SourceAlpha" result="effect1_dropShadow_113_540"/>
<feOffset dy="4"/>
<feGaussianBlur stdDeviation="2"/>
<feComposite in2="hardAlpha" operator="out"/>
<feColorMatrix type="matrix" values="0 0 0 0 0.0470588 0 0 0 0 0.0470588 0 0 0 0 0.0509804 0 0 0 0.05 0"/>
<feBlend mode="normal" in2="BackgroundImageFix" result="effect1_dropShadow_113_540"/>
<feColorMatrix in="SourceAlpha" type="matrix" values="0 0 0 0 0 0 0 0 0 0 0 0 0 0 0 0 0 0 127 0" result="hardAlpha"/>
<feMorphology radius="8" operator="erode" in="SourceAlpha" result="effect2_dropShadow_113_540"/>
<feOffset dy="16"/>
<feGaussianBlur stdDeviation="8"/>
<feComposite in2="hardAlpha" operator="out"/>
<feColorMatrix type="matrix" values="0 0 0 0 0.0470588 0 0 0 0 0.0470588 0 0 0 0 0.0509804 0 0 0 0.1 0"/>
<feBlend mode="normal" in2="effect1_dropShadow_113_540" result="effect2_dropShadow_113_540"/>
<feBlend mode="normal" in="SourceGraphic" in2="effect2_dropShadow_113_540" result="shape"/>
</filter>
</defs>
</svg>
