<svg width="48" height="56" viewBox="0 0 48 56" fill="none" xmlns="http://www.w3.org/2000/svg">
<g filter="url(#filter0_dd_113_524)">
<rect x="8" width="32" height="32" rx="8" fill="#A31414"/>
<path d="M31.4993 22.6667H30.666V10.1667C30.666 9.94573 30.5782 9.73377 30.4219 9.57749C30.2657 9.42121 30.0537 9.33341 29.8327 9.33341C29.6117 9.33341 29.3997 9.42121 29.2434 9.57749C29.0871 9.73377 28.9993 9.94573 28.9993 10.1667V22.6667H27.3327V13.5001C27.3327 13.2791 27.2449 13.0671 27.0886 12.9108C26.9323 12.7545 26.7204 12.6667 26.4993 12.6667C26.2783 12.6667 26.0664 12.7545 25.9101 12.9108C25.7538 13.0671 25.666 13.2791 25.666 13.5001V22.6667H23.9993V16.8334C23.9993 16.6124 23.9116 16.4004 23.7553 16.2442C23.599 16.0879 23.387 16.0001 23.166 16.0001C22.945 16.0001 22.733 16.0879 22.5768 16.2442C22.4205 16.4004 22.3327 16.6124 22.3327 16.8334V22.6667H20.666V20.1667C20.666 19.9457 20.5782 19.7338 20.4219 19.5775C20.2657 19.4212 20.0537 19.3334 19.8327 19.3334C19.6117 19.3334 19.3997 19.4212 19.2434 19.5775C19.0871 19.7338 18.9993 19.9457 18.9993 20.1667V22.6667H17.3327V8.50008C17.3327 8.27907 17.2449 8.06711 17.0886 7.91083C16.9323 7.75455 16.7204 7.66675 16.4993 7.66675C16.2783 7.66675 16.0664 7.75455 15.9101 7.91083C15.7538 8.06711 15.666 8.27907 15.666 8.50008V23.5001C15.666 23.7211 15.7538 23.9331 15.9101 24.0893C16.0664 24.2456 16.2783 24.3334 16.4993 24.3334H31.4993C31.7204 24.3334 31.9323 24.2456 32.0886 24.0893C32.2449 23.9331 32.3327 23.7211 32.3327 23.5001C32.3327 23.2791 32.2449 23.0671 32.0886 22.9108C31.9323 22.7545 31.7204 22.6667 31.4993 22.6667Z" fill="#FFDFDF"/>
</g>
<defs>
<filter id="filter0_dd_113_524" x="0" y="0" width="48" height="56" filterUnits="userSpaceOnUse" color-interpolation-filters="sRGB">
<feFlood flood-opacity="0" result="BackgroundImageFix"/>
<feColorMatrix in="SourceAlpha" type="matrix" values="0 0 0 0 0 0 0 0 0 0 0 0 0 0 0 0 0 0 127 0" result="hardAlpha"/>
<feMorphology radius="4" operator="erode" in="SourceAlpha" result="effect1_dropShadow_113_524"/>
<feOffset dy="4"/>
<feGaussianBlur stdDeviation="2"/>
<feComposite in2="hardAlpha" operator="out"/>
<feColorMatrix type="matrix" values="0 0 0 0 0.0470588 0 0 0 0 0.0470588 0 0 0 0 0.0509804 0 0 0 0.05 0"/>
<feBlend mode="normal" in2="BackgroundImageFix" result="effect1_dropShadow_113_524"/>
<feColorMatrix in="SourceAlpha" type="matrix" values="0 0 0 0 0 0 0 0 0 0 0 0 0 0 0 0 0 0 127 0" result="hardAlpha"/>
<feMorphology radius="8" operator="erode" in="SourceAlpha" result="effect2_dropShadow_113_524"/>
<feOffset dy="16"/>
<feGaussianBlur stdDeviation="8"/>
<feComposite in2="hardAlpha" operator="out"/>
<feColorMatrix type="matrix" values="0 0 0 0 0.0470588 0 0 0 0 0.0470588 0 0 0 0 0.0509804 0 0 0 0.1 0"/>
<feBlend mode="normal" in2="effect1_dropShadow_113_524" result="effect2_dropShadow_113_524"/>
<feBlend mode="normal" in="SourceGraphic" in2="effect2_dropShadow_113_524" result="shape"/>
</filter>
</defs>
</svg>
