<svg width="48" height="56" viewBox="0 0 48 56" fill="none" xmlns="http://www.w3.org/2000/svg">
<g filter="url(#filter0_dd_113_579)">
<rect x="8" width="32" height="32" rx="8" fill="#A31414"/>
<g clip-path="url(#clip0_113_579)">
<path d="M20.6513 16.2767C20.8028 16.9328 20.083 17.4315 19.5231 17.0815L17.6136 15.8883L15.2292 19.704C14.6065 20.7003 15.3262 22 16.5005 22H18.9375C19.2481 22 19.5 22.2519 19.5 22.5625V24.4375C19.5 24.7482 19.2481 25 18.9375 25H16.5054C12.9741 25 10.8193 21.1071 12.6894 18.115L15.0717 14.3L13.1627 13.1071C12.5964 12.7533 12.7424 11.8902 13.3914 11.7403L18.5587 10.5473C18.9624 10.4541 19.365 10.7058 19.4582 11.1094L20.6513 16.2767ZM25.2713 7.70259L27.2067 10.7999L25.2971 11.9932C24.7322 12.3461 24.8752 13.2097 25.5258 13.36L30.6931 14.5529C31.0996 14.6466 31.5001 14.3918 31.5926 13.9909L32.7856 8.82356C32.9354 8.17462 32.2235 7.66485 31.6574 8.01881L29.7502 9.21056L27.816 6.11296C26.0572 3.29891 21.9468 3.29245 20.184 6.11296L19.342 7.46137C19.1774 7.72481 19.2576 8.07173 19.521 8.23635L21.111 9.22987C21.3744 9.39449 21.7215 9.31438 21.8861 9.05095L22.728 7.70362C23.3239 6.75013 24.6955 6.78131 25.2713 7.70259ZM35.3104 18.115L34.0206 16.0495C33.856 15.7859 33.5089 15.7057 33.2454 15.8704L31.6581 16.8622C31.3947 17.0268 31.3145 17.3738 31.4792 17.6373L32.7712 19.7051C33.3927 20.6993 32.6748 22.0001 31.4992 22.0001H27V19.751C27 19.0847 26.1918 18.7486 25.7197 19.2207L21.9697 22.9698C21.6768 23.2626 21.6768 23.7375 21.9697 24.0304L25.7197 27.7799C26.1885 28.2488 27 27.9203 27 27.2495V25H31.4944C35.0228 25 37.1819 21.1095 35.3104 18.115Z" fill="#FFDFDF"/>
</g>
</g>
<defs>
<filter id="filter0_dd_113_579" x="0" y="0" width="48" height="56" filterUnits="userSpaceOnUse" color-interpolation-filters="sRGB">
<feFlood flood-opacity="0" result="BackgroundImageFix"/>
<feColorMatrix in="SourceAlpha" type="matrix" values="0 0 0 0 0 0 0 0 0 0 0 0 0 0 0 0 0 0 127 0" result="hardAlpha"/>
<feMorphology radius="4" operator="erode" in="SourceAlpha" result="effect1_dropShadow_113_579"/>
<feOffset dy="4"/>
<feGaussianBlur stdDeviation="2"/>
<feComposite in2="hardAlpha" operator="out"/>
<feColorMatrix type="matrix" values="0 0 0 0 0.0470588 0 0 0 0 0.0470588 0 0 0 0 0.0509804 0 0 0 0.05 0"/>
<feBlend mode="normal" in2="BackgroundImageFix" result="effect1_dropShadow_113_579"/>
<feColorMatrix in="SourceAlpha" type="matrix" values="0 0 0 0 0 0 0 0 0 0 0 0 0 0 0 0 0 0 127 0" result="hardAlpha"/>
<feMorphology radius="8" operator="erode" in="SourceAlpha" result="effect2_dropShadow_113_579"/>
<feOffset dy="16"/>
<feGaussianBlur stdDeviation="8"/>
<feComposite in2="hardAlpha" operator="out"/>
<feColorMatrix type="matrix" values="0 0 0 0 0.0470588 0 0 0 0 0.0470588 0 0 0 0 0.0509804 0 0 0 0.1 0"/>
<feBlend mode="normal" in2="effect1_dropShadow_113_579" result="effect2_dropShadow_113_579"/>
<feBlend mode="normal" in="SourceGraphic" in2="effect2_dropShadow_113_579" result="shape"/>
</filter>
<clipPath id="clip0_113_579">
<rect width="24" height="24" fill="white" transform="translate(12 4)"/>
</clipPath>
</defs>
</svg>
