<svg width="48" height="56" viewBox="0 0 48 56" fill="none" xmlns="http://www.w3.org/2000/svg">
<g filter="url(#filter0_dd_113_562)">
<rect x="8" width="32" height="32" rx="8" fill="#A31414"/>
<path d="M24 26C21.6833 25.4167 19.7707 24.0873 18.262 22.012C16.7533 19.9367 15.9993 17.6327 16 15.1V9L24 6L32 9V15.1C32 17.6333 31.246 19.9377 29.738 22.013C28.23 24.0883 26.3173 25.4173 24 26ZM24 23.9C25.7333 23.35 27.1667 22.25 28.3 20.6C29.4333 18.95 30 17.1167 30 15.1V10.375L24 8.125L18 10.375V15.1C18 17.1167 18.5667 18.95 19.7 20.6C20.8333 22.25 22.2667 23.35 24 23.9Z" fill="#FFDFDF"/>
</g>
<defs>
<filter id="filter0_dd_113_562" x="0" y="0" width="48" height="56" filterUnits="userSpaceOnUse" color-interpolation-filters="sRGB">
<feFlood flood-opacity="0" result="BackgroundImageFix"/>
<feColorMatrix in="SourceAlpha" type="matrix" values="0 0 0 0 0 0 0 0 0 0 0 0 0 0 0 0 0 0 127 0" result="hardAlpha"/>
<feMorphology radius="4" operator="erode" in="SourceAlpha" result="effect1_dropShadow_113_562"/>
<feOffset dy="4"/>
<feGaussianBlur stdDeviation="2"/>
<feComposite in2="hardAlpha" operator="out"/>
<feColorMatrix type="matrix" values="0 0 0 0 0.0470588 0 0 0 0 0.0470588 0 0 0 0 0.0509804 0 0 0 0.05 0"/>
<feBlend mode="normal" in2="BackgroundImageFix" result="effect1_dropShadow_113_562"/>
<feColorMatrix in="SourceAlpha" type="matrix" values="0 0 0 0 0 0 0 0 0 0 0 0 0 0 0 0 0 0 127 0" result="hardAlpha"/>
<feMorphology radius="8" operator="erode" in="SourceAlpha" result="effect2_dropShadow_113_562"/>
<feOffset dy="16"/>
<feGaussianBlur stdDeviation="8"/>
<feComposite in2="hardAlpha" operator="out"/>
<feColorMatrix type="matrix" values="0 0 0 0 0.0470588 0 0 0 0 0.0470588 0 0 0 0 0.0509804 0 0 0 0.1 0"/>
<feBlend mode="normal" in2="effect1_dropShadow_113_562" result="effect2_dropShadow_113_562"/>
<feBlend mode="normal" in="SourceGraphic" in2="effect2_dropShadow_113_562" result="shape"/>
</filter>
</defs>
</svg>
