<svg width="48" height="56" viewBox="0 0 48 56" fill="none" xmlns="http://www.w3.org/2000/svg">
<g filter="url(#filter0_dd_113_555)">
<rect x="8" width="32" height="32" rx="8" fill="#A31414"/>
<path d="M17.5258 20.1749L21.0758 16.6249C21.2758 16.4249 21.5091 16.3289 21.7758 16.3369C22.0424 16.3449 22.2758 16.4492 22.4758 16.6499C22.6591 16.8499 22.7508 17.0832 22.7508 17.3499C22.7508 17.6166 22.6591 17.8499 22.4758 18.0499L18.2508 22.2999C18.0508 22.4999 17.8174 22.5999 17.5508 22.5999C17.2841 22.5999 17.0508 22.4999 16.8508 22.2999L14.7008 20.1499C14.5174 19.9666 14.4258 19.7332 14.4258 19.4499C14.4258 19.1666 14.5174 18.9332 14.7008 18.7499C14.8841 18.5666 15.1174 18.4749 15.4008 18.4749C15.6841 18.4749 15.9174 18.5666 16.1008 18.7499L17.5258 20.1749ZM17.5258 12.1749L21.0758 8.62489C21.2758 8.42489 21.5091 8.32889 21.7758 8.33689C22.0424 8.34489 22.2758 8.44922 22.4758 8.64989C22.6591 8.84989 22.7508 9.08322 22.7508 9.34989C22.7508 9.61655 22.6591 9.84989 22.4758 10.0499L18.2508 14.2999C18.0508 14.4999 17.8174 14.5999 17.5508 14.5999C17.2841 14.5999 17.0508 14.4999 16.8508 14.2999L14.7008 12.1499C14.5174 11.9666 14.4258 11.7332 14.4258 11.4499C14.4258 11.1666 14.5174 10.9332 14.7008 10.7499C14.8841 10.5666 15.1174 10.4749 15.4008 10.4749C15.6841 10.4749 15.9174 10.5666 16.1008 10.7499L17.5258 12.1749ZM26.0008 20.9999C25.7174 20.9999 25.4801 20.9039 25.2888 20.7119C25.0974 20.5199 25.0014 20.2826 25.0008 19.9999C25.0001 19.7172 25.0961 19.4799 25.2888 19.2879C25.4814 19.0959 25.7188 18.9999 26.0008 18.9999H33.0008C33.2841 18.9999 33.5218 19.0959 33.7138 19.2879C33.9058 19.4799 34.0014 19.7172 34.0008 19.9999C34.0001 20.2826 33.9041 20.5202 33.7128 20.7129C33.5214 20.9056 33.2841 21.0012 33.0008 20.9999H26.0008ZM26.0008 12.9999C25.7174 12.9999 25.4801 12.9039 25.2888 12.7119C25.0974 12.5199 25.0014 12.2826 25.0008 11.9999C25.0001 11.7172 25.0961 11.4799 25.2888 11.2879C25.4814 11.0959 25.7188 10.9999 26.0008 10.9999H33.0008C33.2841 10.9999 33.5218 11.0959 33.7138 11.2879C33.9058 11.4799 34.0014 11.7172 34.0008 11.9999C34.0001 12.2826 33.9041 12.5202 33.7128 12.7129C33.5214 12.9056 33.2841 13.0012 33.0008 12.9999H26.0008Z" fill="#FFDFDF"/>
</g>
<defs>
<filter id="filter0_dd_113_555" x="0" y="0" width="48" height="56" filterUnits="userSpaceOnUse" color-interpolation-filters="sRGB">
<feFlood flood-opacity="0" result="BackgroundImageFix"/>
<feColorMatrix in="SourceAlpha" type="matrix" values="0 0 0 0 0 0 0 0 0 0 0 0 0 0 0 0 0 0 127 0" result="hardAlpha"/>
<feMorphology radius="4" operator="erode" in="SourceAlpha" result="effect1_dropShadow_113_555"/>
<feOffset dy="4"/>
<feGaussianBlur stdDeviation="2"/>
<feComposite in2="hardAlpha" operator="out"/>
<feColorMatrix type="matrix" values="0 0 0 0 0.0470588 0 0 0 0 0.0470588 0 0 0 0 0.0509804 0 0 0 0.05 0"/>
<feBlend mode="normal" in2="BackgroundImageFix" result="effect1_dropShadow_113_555"/>
<feColorMatrix in="SourceAlpha" type="matrix" values="0 0 0 0 0 0 0 0 0 0 0 0 0 0 0 0 0 0 127 0" result="hardAlpha"/>
<feMorphology radius="8" operator="erode" in="SourceAlpha" result="effect2_dropShadow_113_555"/>
<feOffset dy="16"/>
<feGaussianBlur stdDeviation="8"/>
<feComposite in2="hardAlpha" operator="out"/>
<feColorMatrix type="matrix" values="0 0 0 0 0.0470588 0 0 0 0 0.0470588 0 0 0 0 0.0509804 0 0 0 0.1 0"/>
<feBlend mode="normal" in2="effect1_dropShadow_113_555" result="effect2_dropShadow_113_555"/>
<feBlend mode="normal" in="SourceGraphic" in2="effect2_dropShadow_113_555" result="shape"/>
</filter>
</defs>
</svg>
