<svg width="40" height="40" viewBox="0 0 40 40" fill="none" xmlns="http://www.w3.org/2000/svg">
<path d="M25.6914 12.2493C25.209 12.2495 24.7417 12.4171 24.3689 12.7233C23.9962 13.0295 23.7412 13.4555 23.6473 13.9287C23.5534 14.4019 23.6265 14.8929 23.8541 15.3183C24.0817 15.7436 24.4498 16.0768 24.8955 16.2612C25.3413 16.4456 25.8372 16.4698 26.2988 16.3295C26.7603 16.1893 27.159 15.8934 27.4268 15.4921C27.6947 15.0909 27.8151 14.6093 27.7676 14.1292C27.7201 13.6491 27.5077 13.2004 27.1664 12.8594C26.9729 12.6655 26.743 12.5118 26.4899 12.4071C26.2367 12.3024 25.9654 12.2487 25.6914 12.2493Z" fill="white"/>
<path d="M37.3006 3.91088C37.3003 3.90855 37.3003 3.90618 37.3006 3.90385C37.2346 3.61425 37.0889 3.34888 36.88 3.13768C36.6712 2.92647 36.4075 2.77783 36.1186 2.70854C33.7905 2.14057 30.128 2.74604 26.0694 4.37104C21.9788 6.01166 18.146 8.43354 15.5553 11.0289C14.725 11.8549 13.9536 12.738 13.2467 13.6718C11.5022 13.5937 9.96549 13.8421 8.67096 14.407C4.16002 16.3921 2.87174 21.4726 2.52877 23.5585C2.47914 23.8549 2.49858 24.1588 2.58556 24.4464C2.67254 24.7341 2.82472 24.9978 3.03026 25.217C3.2358 25.4362 3.48916 25.605 3.77061 25.7104C4.05207 25.8157 4.35403 25.8546 4.65299 25.8242H4.66315L9.68815 25.2757C9.6944 25.3398 9.70143 25.3984 9.7069 25.4523C9.77144 26.0646 10.0445 26.6361 10.4803 27.071L12.9327 29.5249C13.3669 29.9614 13.9383 30.2348 14.5506 30.2992L14.7186 30.3171L14.1717 35.3359V35.346C14.1438 35.6163 14.1726 35.8895 14.2562 36.148C14.3398 36.4066 14.4765 36.6448 14.6574 36.8476C14.8384 37.0503 15.0597 37.213 15.3071 37.3253C15.5545 37.4377 15.8227 37.4971 16.0944 37.4999C16.203 37.5001 16.3115 37.4912 16.4186 37.4734C18.5163 37.1359 23.5944 35.8632 25.5741 31.3281C26.1342 30.0421 26.3819 28.5117 26.3124 26.7703C27.2504 26.065 28.1368 25.2935 28.9647 24.4617C31.5764 21.8632 34.0061 18.0617 35.6296 14.0304C37.246 10.0179 37.8546 6.32807 37.3006 3.91088ZM28.9366 17.5734C28.2947 18.216 27.4766 18.6537 26.5858 18.8313C25.695 19.0088 24.7716 18.9182 23.9323 18.5708C23.0931 18.2235 22.3757 17.635 21.871 16.8798C21.3663 16.1247 21.0969 15.2368 21.0969 14.3285C21.0969 13.4202 21.3663 12.5323 21.871 11.7771C22.3757 11.022 23.0931 10.4335 23.9323 10.0861C24.7716 9.73872 25.695 9.64808 26.5858 9.82563C27.4766 10.0032 28.2947 10.4409 28.9366 11.0835C29.3668 11.5073 29.7085 12.0125 29.9417 12.5696C30.175 13.1266 30.2951 13.7245 30.2951 14.3285C30.2951 14.9324 30.175 15.5303 29.9417 16.0874C29.7085 16.6444 29.3668 17.1496 28.9366 17.5734Z" fill="white"/>
<path d="M12.6512 30.1907C12.3489 30.1532 12.0433 30.2273 11.7918 30.3993C11.2926 30.7407 10.791 31.0782 10.2848 31.4071C9.26057 32.0727 8.03557 30.904 8.64416 29.8446L9.59338 28.204C9.72909 28.0054 9.80465 27.772 9.81101 27.5316C9.81737 27.2912 9.75426 27.0541 9.62925 26.8487C9.50423 26.6433 9.32262 26.4783 9.10618 26.3735C8.88975 26.2687 8.64768 26.2285 8.409 26.2579C7.35549 26.3911 6.37622 26.871 5.62541 27.6219C5.33947 27.9086 4.46994 28.779 4.00197 32.0954C3.86878 33.048 3.78481 34.0068 3.75041 34.968C3.74613 35.1349 3.77531 35.3008 3.83621 35.4562C3.89711 35.6116 3.9885 35.7532 4.10501 35.8727C4.22151 35.9922 4.36076 36.0871 4.51454 36.1519C4.66832 36.2167 4.83353 36.2501 5.00041 36.2501H5.03166C5.99364 36.216 6.95324 36.1325 7.90666 36.0001C11.2246 35.5313 12.0949 34.661 12.3809 34.3751C13.1353 33.6239 13.614 32.64 13.7395 31.5829C13.7796 31.254 13.6876 30.9226 13.4835 30.6615C13.2794 30.4005 12.9801 30.2311 12.6512 30.1907Z" fill="white"/>
</svg>
