<svg width="22" height="21" viewBox="0 0 22 21" fill="none" xmlns="http://www.w3.org/2000/svg">
<circle cx="10" cy="10.5" r="10" fill="#FFDFDF"/>
<g clip-path="url(#clip0_117_558)">
<path d="M21.2312 0.721454C20.8558 0.522989 20.3991 0.454195 19.9615 0.530201C19.5239 0.606207 19.1412 0.820789 18.8977 1.12676L9.44327 13.0066L4.8325 9.53126C4.66983 9.40865 4.47912 9.31335 4.27127 9.25082C4.06342 9.18828 3.84249 9.15973 3.62111 9.1668C3.174 9.18107 2.75215 9.33955 2.44838 9.60737C2.14461 9.87519 1.98378 10.2304 2.00129 10.5949C2.0188 10.9594 2.21321 11.3033 2.54174 11.5509L8.5957 16.1137C8.5957 16.1137 8.76948 16.2357 8.84991 16.2783C9.03581 16.3767 9.24365 16.4442 9.46156 16.4771C9.67947 16.5099 9.90319 16.5075 10.1199 16.4698C10.3367 16.4322 10.5422 16.3601 10.7248 16.2577C10.9073 16.1553 11.0634 16.0246 11.184 15.873L21.7283 2.62371C21.9718 2.3177 22.0562 1.94539 21.963 1.58866C21.8697 1.23193 21.6065 0.919992 21.2312 0.721454Z" fill="#A31414"/>
</g>
<defs>
<clipPath id="clip0_117_558">
<rect width="20" height="20" fill="white" transform="translate(2 0.5)"/>
</clipPath>
</defs>
</svg>
