<svg width="40" height="40" viewBox="0 0 40 40" fill="none" xmlns="http://www.w3.org/2000/svg">
<path fill-rule="evenodd" clip-rule="evenodd" d="M21.5065 26.66C23.1638 25.7017 24.6115 24.4201 25.7637 22.8914C25.3923 22.3138 25.1281 21.6741 24.9837 21.0028L24.9294 20.7514C24.7738 20.0335 24.4072 19.3786 23.8768 18.8705C23.3463 18.3625 22.6761 18.0245 21.9523 17.9C16.0323 16.8714 16.0323 8.37424 21.9523 7.34281C22.6514 7.22246 23.301 6.90287 23.823 6.42242C24.3451 5.94196 24.7173 5.32106 24.8951 4.63424C23.503 3.11728 21.7995 1.91916 19.9012 1.12195C18.0029 0.32473 15.9547 -0.0527403 13.897 0.0153933C11.8392 0.0835268 9.82045 0.595654 7.97905 1.51669C6.13765 2.43773 4.5171 3.74592 3.2284 5.35163C1.93971 6.95735 1.01332 8.82265 0.512706 10.8198C0.0120913 12.8169 -0.0509217 14.8986 0.327983 16.9223C0.706888 18.9461 1.51876 20.864 2.70798 22.5447C3.89719 24.2254 5.43566 25.6292 7.21798 26.66V30C7.21798 30.7577 7.519 31.4844 8.05481 32.0203C8.59063 32.5561 9.31736 32.8571 10.0751 32.8571H18.6465C19.4043 32.8571 20.131 32.5561 20.6669 32.0203C21.2027 31.4844 21.5037 30.7577 21.5037 30L21.5065 26.66ZM7.22083 37.8571C7.22083 37.2888 7.4466 36.7437 7.84846 36.3419C8.25033 35.94 8.79537 35.7142 9.36369 35.7142H19.3637C19.932 35.7142 20.4771 35.94 20.8789 36.3419C21.2808 36.7437 21.5065 37.2888 21.5065 37.8571C21.5065 38.4254 21.2808 38.9705 20.8789 39.3723C20.4771 39.7742 19.932 40 19.3637 40H9.36369C8.79537 40 8.25033 39.7742 7.84846 39.3723C7.4466 38.9705 7.22083 38.4254 7.22083 37.8571ZM28.0208 4.90567C28.5437 2.5171 31.9437 2.50281 32.4865 4.88567L32.5123 4.99995L32.5637 5.22281C32.8721 6.52791 33.5564 7.71395 34.5319 8.63413C35.5074 9.55431 36.7314 10.1682 38.0523 10.4C40.5437 10.8342 40.5437 14.4114 38.0523 14.8457C36.7237 15.0784 35.4934 15.6978 34.5151 16.6263C33.5368 17.5547 32.854 18.7511 32.5523 20.0657L32.4865 20.3571C31.9437 22.7428 28.5408 22.7285 28.0151 20.3371L27.9608 20.0885C27.6728 18.7689 26.9983 17.565 26.0233 16.6302C25.0484 15.6954 23.8171 15.0722 22.4865 14.84C19.998 14.4085 19.998 10.8371 22.4865 10.4028C23.8125 10.1722 25.0401 9.55341 26.0141 8.62468C26.9881 7.69596 27.6646 6.49911 27.958 5.18567L28.0008 4.99995L28.0208 4.90567Z" fill="#A31414"/>
</svg>
